<svg id="LOGO-FOOSBALL-HORIZONTAL" xmlns="http://www.w3.org/2000/svg" width="145.945" height="21.039" viewBox="0 0 145.945 21.039">
  <g id="Grupo_192" data-name="Grupo 192">
    <g id="Grupo_188" data-name="Grupo 188" transform="translate(52.656)">
      <path id="Trazado_293" data-name="Trazado 293" d="M180.707,299.755c0-1.779.005-3.523.008-5.317l-3.5,0c0,1.823-.005,3.594-.008,5.39l-.873.056,0,.9,5.3.008V299.9Z" transform="translate(-151.317 -282.676)" fill="#fff"/>
      <path id="Trazado_294" data-name="Trazado 294" d="M154.143,299.82c0-1.837.005-3.631.008-5.421l-3.477-.005-.008,5.41h-.9l0,.961,5.312.008,0-.949Z" transform="translate(-144.783 -282.666)" fill="#fff"/>
      <path id="Trazado_295" data-name="Trazado 295" d="M167.34,299.789c0-1.823,0-3.593.008-5.368l-3.358,0c0,1.447,0,2.842-.008,4.237-.008,1.068-.017,1.068-1.01,1.292v.821l5.423.008,0-.884Z" transform="translate(-148.031 -282.672)" fill="#fff"/>
      <path id="Trazado_296" data-name="Trazado 296" d="M179.147,283.347a2.255,2.255,0,0,0,2.218-2.245,2.193,2.193,0,0,0-2.282-2.225,2.15,2.15,0,0,0-2.16,2.247A2.226,2.226,0,0,0,179.147,283.347Z" transform="translate(-151.463 -278.849)" fill="#fff"/>
      <path id="Trazado_297" data-name="Trazado 297" d="M152.57,283.311a2.222,2.222,0,0,0,2.23-2.219,2.218,2.218,0,0,0-4.434-.1A2.225,2.225,0,0,0,152.57,283.311Z" transform="translate(-144.93 -278.84)" fill="#fff"/>
      <path id="Trazado_298" data-name="Trazado 298" d="M165.8,283.327a2.318,2.318,0,0,0,2.286-2.275,2.2,2.2,0,0,0-2.248-2.195,2.227,2.227,0,0,0-2.254,2.2A2.347,2.347,0,0,0,165.8,283.327Z" transform="translate(-148.183 -278.844)" fill="#fff"/>
      <path id="Trazado_299" data-name="Trazado 299" d="M159.326,302.173a1.7,1.7,0,0,1,1.733,1.692,1.786,1.786,0,0,1-1.762,1.754,1.81,1.81,0,0,1-1.709-1.753A1.717,1.717,0,0,1,159.326,302.173Z" transform="translate(-146.707 -284.58)" fill="#fff"/>
      <path id="Trazado_300" data-name="Trazado 300" d="M177.471,285.206h-3.248c.157-.542.261-.906.261-.906h-7.328s.1.366.238.906h-3.2c.157-.542.261-.906.261-.906h-7.327l.238.906H154.26c.157-.542.261-.906.261-.906h-7.328l.238.906h-3.344a.933.933,0,0,0-.93.93v.165a.933.933,0,0,0,.93.93h3.873c.3,1.161.591,2.276.644,2.5.118.509.51,1.2,1.136,1.2h1.842c.744,0,.979-.223,1.254-.967.124-.338.482-1.533.835-2.739H157.9c.3,1.161.591,2.276.644,2.5.117.509.509,1.2,1.136,1.2h1.841c.745,0,.98-.223,1.255-.967.124-.338.481-1.533.835-2.739h4.315c.3,1.161.591,2.276.644,2.5.118.509.51,1.2,1.137,1.2h1.841c.745,0,.98-.223,1.254-.967.124-.338.482-1.533.835-2.739h3.836a.933.933,0,0,0,.93-.93v-.165A.933.933,0,0,0,177.471,285.206Z" transform="translate(-143.157 -280.183)" fill="#fff"/>
    </g>
    <g id="Grupo_189" data-name="Grupo 189" transform="translate(0 6.698)">
      <path id="Trazado_301" data-name="Trazado 301" d="M34.123,283.178a11.9,11.9,0,0,1-1.411.291,11.588,11.588,0,0,1-1.813.131,4.3,4.3,0,0,1-1.6-.263,2.435,2.435,0,0,1-1.012-.729,2.831,2.831,0,0,1-.529-1.117,5.991,5.991,0,0,1-.155-1.425l.012-4.216,2.144.006-.011,3.957a3.061,3.061,0,0,0,.269,1.5,1.087,1.087,0,0,0,1.02.463q.23,0,.489-.021t.46-.049L32,275.864l2.144.005Z" transform="translate(-27.599 -272.284)" fill="#fff"/>
      <path id="Trazado_302" data-name="Trazado 302" d="M48.681,277.382a4.8,4.8,0,0,1-.271,1.639,3.471,3.471,0,0,1-.773,1.249,3.386,3.386,0,0,1-1.24.8,4.653,4.653,0,0,1-1.67.276q-.389,0-.813-.038t-.834-.1q-.41-.059-.784-.139t-.661-.167l.03-10.575,2.145-.339-.011,3.77a4.013,4.013,0,0,1,.749-.242,3.8,3.8,0,0,1,.835-.084,3.415,3.415,0,0,1,1.423.284,2.791,2.791,0,0,1,1.033.8,3.581,3.581,0,0,1,.63,1.246A5.653,5.653,0,0,1,48.681,277.382Zm-2.187-.064q.005-2.072-1.519-2.076a2.524,2.524,0,0,0-.655.085,1.874,1.874,0,0,0-.526.214l-.011,3.9q.158.03.4.052t.532.023a1.541,1.541,0,0,0,1.325-.6A2.626,2.626,0,0,0,46.494,277.318Z" transform="translate(-33.097 -269.987)" fill="#fff"/>
      <path id="Trazado_303" data-name="Trazado 303" d="M58.064,283.5,55.92,283.5l.021-7.568,2.144.005Z" transform="translate(-38.693 -272.315)" fill="#fff"/>
      <path id="Trazado_304" data-name="Trazado 304" d="M62.182,279.628a4.635,4.635,0,0,1,.271-1.6,3.546,3.546,0,0,1,.773-1.25,3.417,3.417,0,0,1,1.24-.809,4.541,4.541,0,0,1,1.67-.283c.259,0,.53.014.813.038s.561.057.835.1.534.085.783.139.47.109.662.167l-.028,9.971-2.144-.006.009-2.849a4.018,4.018,0,0,1-.749.242,3.83,3.83,0,0,1-.835.085,2.971,2.971,0,0,1-2.457-1.064A4.458,4.458,0,0,1,62.182,279.628Zm2.187.063q-.005,2.058,1.52,2.062a2.521,2.521,0,0,0,.655-.085,1.868,1.868,0,0,0,.526-.214l.011-3.871q-.159-.029-.4-.052c-.163-.015-.34-.022-.532-.023a1.549,1.549,0,0,0-1.325.594A2.6,2.6,0,0,0,64.369,279.691Z" transform="translate(-41.146 -272.218)" fill="#fff"/>
      <path id="Trazado_305" data-name="Trazado 305" d="M83.463,283.316a11.887,11.887,0,0,1-1.411.291,11.585,11.585,0,0,1-1.813.131,4.3,4.3,0,0,1-1.6-.263,2.431,2.431,0,0,1-1.012-.729,2.831,2.831,0,0,1-.529-1.117,5.991,5.991,0,0,1-.154-1.425l.012-4.216,2.144.006-.011,3.957a3.069,3.069,0,0,0,.269,1.5,1.088,1.088,0,0,0,1.021.464q.23,0,.489-.021t.46-.049L81.339,276l2.144.006Z" transform="translate(-46.926 -272.338)" fill="#fff"/>
      <path id="Trazado_306" data-name="Trazado 306" d="M95.143,279.488a2.961,2.961,0,0,0-.262-1.468.986.986,0,0,0-.912-.434c-.134,0-.273.007-.417.021s-.283.03-.417.049l-.016,5.841-2.144-.006.02-7.309c.182-.047.4-.1.641-.149s.5-.1.777-.142.554-.075.842-.1.571-.034.849-.033a3.562,3.562,0,0,1,1.33.212,3.009,3.009,0,0,1,.841.5,4,4,0,0,1,2.16-.7,3.778,3.778,0,0,1,1.488.256,2.242,2.242,0,0,1,.926.715,2.687,2.687,0,0,1,.472,1.095,7.068,7.068,0,0,1,.126,1.41l-.012,4.273-2.144-.006L99.3,279.5a2.961,2.961,0,0,0-.262-1.468.987.987,0,0,0-.912-.434,1.94,1.94,0,0,0-.482.085,1.87,1.87,0,0,0-.511.215,3.261,3.261,0,0,1,.127.7q.027.367.027.784l-.012,4.129-2.144-.006Z" transform="translate(-52.424 -272.248)" fill="#fff"/>
    </g>
    <g id="Grupo_190" data-name="Grupo 190" transform="translate(91.146 10.52)">
      <path id="Trazado_307" data-name="Trazado 307" d="M48.55,297.444l-2.915-.008L45.63,299.3l2.436.007a.731.731,0,0,1,.505.153.526.526,0,0,1,.167.407.513.513,0,0,1-.171.4.734.734,0,0,1-.5.148l-2.436-.007-.007,2.406a.972.972,0,0,1-.208.68.747.747,0,0,1-1.066-.006.968.968,0,0,1-.2-.678l.015-5.619a1.265,1.265,0,0,1,.1-.522.6.6,0,0,1,.3-.293,1.255,1.255,0,0,1,.517-.09l3.486.01a.752.752,0,0,1,.525.157.584.584,0,0,1,0,.828A.761.761,0,0,1,48.55,297.444Z" transform="translate(-44.141 -296.193)" fill="#fff"/>
      <path id="Trazado_308" data-name="Trazado 308" d="M52.771,296.207a3.9,3.9,0,0,1,1.95.466,2.994,2.994,0,0,1,1.228,1.314,4.458,4.458,0,0,1,.413,2,4.879,4.879,0,0,1-.234,1.538,3.321,3.321,0,0,1-.691,1.2,2.993,2.993,0,0,1-1.128.774,4.445,4.445,0,0,1-3.064-.015,3.054,3.054,0,0,1-1.129-.783,3.317,3.317,0,0,1-.681-1.212,4.923,4.923,0,0,1-.228-1.531,4.749,4.749,0,0,1,.246-1.543,3.292,3.292,0,0,1,.7-1.193,3.009,3.009,0,0,1,1.119-.752A3.989,3.989,0,0,1,52.771,296.207Zm2.092,3.763a3.43,3.43,0,0,0-.256-1.39,1.929,1.929,0,0,0-.737-.892,2.033,2.033,0,0,0-1.1-.3,2,2,0,0,0-.819.163,1.78,1.78,0,0,0-.649.485,2.3,2.3,0,0,0-.431.813,3.692,3.692,0,0,0-.16,1.113,3.759,3.759,0,0,0,.154,1.127,2.276,2.276,0,0,0,.441.835,1.866,1.866,0,0,0,.656.5,2.078,2.078,0,0,0,1.859-.115,1.968,1.968,0,0,0,.76-.874A3.407,3.407,0,0,0,54.863,299.97Z" transform="translate(-43.347 -296.207)" fill="#fff"/>
      <path id="Trazado_309" data-name="Trazado 309" d="M59.757,296.226a3.9,3.9,0,0,1,1.949.466,2.986,2.986,0,0,1,1.23,1.315,4.452,4.452,0,0,1,.413,2,4.869,4.869,0,0,1-.234,1.538,3.326,3.326,0,0,1-.691,1.2,3,3,0,0,1-1.129.774,4.433,4.433,0,0,1-3.063-.016,3.052,3.052,0,0,1-1.129-.782,3.322,3.322,0,0,1-.681-1.213,4.876,4.876,0,0,1-.228-1.53,4.73,4.73,0,0,1,.246-1.544,3.3,3.3,0,0,1,.7-1.193,3.013,3.013,0,0,1,1.117-.752A4.024,4.024,0,0,1,59.757,296.226Zm2.092,3.763a3.434,3.434,0,0,0-.256-1.39,1.935,1.935,0,0,0-.737-.892,2.031,2.031,0,0,0-1.1-.3,2,2,0,0,0-.82.164,1.785,1.785,0,0,0-.648.485,2.283,2.283,0,0,0-.431.812,3.663,3.663,0,0,0-.16,1.114,3.765,3.765,0,0,0,.154,1.127,2.294,2.294,0,0,0,.441.835,1.862,1.862,0,0,0,.656.5,2.078,2.078,0,0,0,1.859-.114,1.978,1.978,0,0,0,.76-.873A3.408,3.408,0,0,0,61.849,299.989Z" transform="translate(-42.252 -296.204)" fill="#fff"/>
      <path id="Trazado_310" data-name="Trazado 310" d="M69.053,301.488a2.152,2.152,0,0,1-.344,1.19,2.272,2.272,0,0,1-1,.824,3.756,3.756,0,0,1-1.56.295,3.509,3.509,0,0,1-1.782-.414,2.386,2.386,0,0,1-.807-.787,1.781,1.781,0,0,1-.308-.955.633.633,0,0,1,.187-.459.641.641,0,0,1,.477-.191.562.562,0,0,1,.4.15,1.175,1.175,0,0,1,.275.444,3.007,3.007,0,0,0,.3.584,1.224,1.224,0,0,0,.455.388,1.694,1.694,0,0,0,.773.154,1.741,1.741,0,0,0,1.069-.3.919.919,0,0,0,.413-.762.806.806,0,0,0-.22-.591,1.42,1.42,0,0,0-.571-.348c-.235-.08-.547-.167-.939-.258a6.931,6.931,0,0,1-1.316-.433,2.129,2.129,0,0,1-.84-.677,1.741,1.741,0,0,1-.309-1.06,1.816,1.816,0,0,1,.332-1.069,2.059,2.059,0,0,1,.953-.717,3.886,3.886,0,0,1,1.466-.249,3.692,3.692,0,0,1,1.164.17,2.5,2.5,0,0,1,.813.445,1.838,1.838,0,0,1,.471.583,1.322,1.322,0,0,1,.148.593.694.694,0,0,1-.187.474.59.59,0,0,1-.466.21.536.536,0,0,1-.386-.127,1.739,1.739,0,0,1-.286-.418,1.872,1.872,0,0,0-.477-.647,1.4,1.4,0,0,0-.9-.234,1.556,1.556,0,0,0-.925.25.731.731,0,0,0-.353.6.625.625,0,0,0,.118.379,1.041,1.041,0,0,0,.328.274,2.165,2.165,0,0,0,.423.18q.213.066.707.192a10.808,10.808,0,0,1,1.117.322,3.336,3.336,0,0,1,.85.426,1.754,1.754,0,0,1,.547.632A2.013,2.013,0,0,1,69.053,301.488Z" transform="translate(-41.147 -296.201)" fill="#fff"/>
      <path id="Trazado_311" data-name="Trazado 311" d="M72.466,303.674l-2.231-.006a.927.927,0,0,1-.689-.22.971.971,0,0,1-.2-.691l.015-5.49a.958.958,0,0,1,.214-.694.937.937,0,0,1,.686-.209l2.367.006a5.533,5.533,0,0,1,.906.067,1.951,1.951,0,0,1,.687.251,1.8,1.8,0,0,1,.457.392,1.719,1.719,0,0,1,.3.525,1.753,1.753,0,0,1,.1.6,1.678,1.678,0,0,1-1.1,1.6,1.784,1.784,0,0,1,1.435,1.787,2,2,0,0,1-.317,1.1,1.894,1.894,0,0,1-.849.724,3.1,3.1,0,0,1-.768.194A7.844,7.844,0,0,1,72.466,303.674Zm-.1-3.243-1.54,0-.006,2.133,1.589,0q1.5.005,1.5-1.077a.885.885,0,0,0-.386-.8A2.179,2.179,0,0,0,72.367,300.431Zm-1.531-2.953-.006,1.888,1.356,0a2.749,2.749,0,0,0,.855-.1.815.815,0,0,0,.462-.4.892.892,0,0,0,.126-.467.728.728,0,0,0-.391-.737,3.015,3.015,0,0,0-1.2-.185Z" transform="translate(-40.193 -296.182)" fill="#fff"/>
      <path id="Trazado_312" data-name="Trazado 312" d="M80.1,302.884l-.347-.917-2.968-.008-.352.935a3.3,3.3,0,0,1-.352.74.555.555,0,0,1-.473.19.687.687,0,0,1-.493-.206.625.625,0,0,1-.213-.463,1.027,1.027,0,0,1,.051-.309c.032-.106.088-.254.165-.444L77,297.664c.053-.135.117-.3.192-.489a2.466,2.466,0,0,1,.241-.474.972.972,0,0,1,.335-.307,1.016,1.016,0,0,1,.511-.115,1.036,1.036,0,0,1,.515.117,1.015,1.015,0,0,1,.333.3,2.1,2.1,0,0,1,.213.4c.058.141.132.33.22.566l1.9,4.718a2.362,2.362,0,0,1,.221.783.642.642,0,0,1-.213.465.692.692,0,0,1-.511.211.639.639,0,0,1-.3-.064.6.6,0,0,1-.209-.169,1.655,1.655,0,0,1-.18-.33C80.2,303.128,80.147,303,80.1,302.884Zm-2.924-2.035,2.182.006-1.092-3.018Z" transform="translate(-39.321 -296.196)" fill="#fff"/>
      <path id="Trazado_313" data-name="Trazado 313" d="M83.172,297.19l-.015,5.315,3,.009a.784.784,0,0,1,.549.176.564.564,0,0,1,.191.438.548.548,0,0,1-.191.435.814.814,0,0,1-.553.167l-3.572-.01a.775.775,0,0,1-.9-.909l.016-5.625a.979.979,0,0,1,.2-.672.68.68,0,0,1,.531-.222.7.7,0,0,1,.54.222A.963.963,0,0,1,83.172,297.19Z" transform="translate(-38.26 -296.194)" fill="#fff"/>
      <path id="Trazado_314" data-name="Trazado 314" d="M88.5,297.2l-.015,5.316,3,.009a.789.789,0,0,1,.549.175.568.568,0,0,1,.191.44.548.548,0,0,1-.191.435.808.808,0,0,1-.553.165l-3.572-.009a.775.775,0,0,1-.9-.909l.016-5.625a.979.979,0,0,1,.2-.672.677.677,0,0,1,.531-.222.7.7,0,0,1,.54.223A.955.955,0,0,1,88.5,297.2Z" transform="translate(-37.425 -296.191)" fill="#fff"/>
    </g>
  </g>
</svg>
