<svg id="LOGO-FOOSBALL-CUADRADO" xmlns="http://www.w3.org/2000/svg" width="137.553" height="125.578" viewBox="0 0 137.553 125.578">
  <g id="Grupo_196" data-name="Grupo 196" transform="translate(-27.599 -229.239)">
    <g id="Grupo_193" data-name="Grupo 193" transform="translate(27.599 298.788)">
      <path id="Trazado_323" data-name="Trazado 323" d="M45.9,296.411a33.381,33.381,0,0,1-3.96.818,32.517,32.517,0,0,1-5.088.369,12.076,12.076,0,0,1-4.5-.739,6.833,6.833,0,0,1-2.84-2.046,7.944,7.944,0,0,1-1.485-3.134,16.813,16.813,0,0,1-.434-4l.034-11.83,6.015.017-.031,11.1a8.589,8.589,0,0,0,.756,4.2,3.049,3.049,0,0,0,2.862,1.3q.645,0,1.372-.058t1.292-.137l.046-16.39,6.015.015Z" transform="translate(-27.599 -265.842)" fill="#fff"/>
      <path id="Trazado_324" data-name="Trazado 324" d="M61.4,290.737a13.469,13.469,0,0,1-.76,4.6,9.738,9.738,0,0,1-2.169,3.506A9.5,9.5,0,0,1,55,301.075a13.058,13.058,0,0,1-4.685.773q-1.091,0-2.282-.107t-2.34-.268q-1.15-.166-2.2-.391t-1.855-.469l.084-29.673,6.018-.952-.031,10.577a11.27,11.27,0,0,1,2.1-.679,10.658,10.658,0,0,1,2.343-.236,9.579,9.579,0,0,1,3.994.8,7.83,7.83,0,0,1,2.9,2.25,10.046,10.046,0,0,1,1.767,3.5A15.861,15.861,0,0,1,61.4,290.737Zm-6.136-.179q.015-5.814-4.264-5.825a7.082,7.082,0,0,0-1.838.237,5.256,5.256,0,0,0-1.475.6l-.031,10.941q.443.084,1.13.145t1.493.065A4.325,4.325,0,0,0,54,295.036,7.369,7.369,0,0,0,55.269,290.557Z" transform="translate(-17.678 -269.987)" fill="#fff"/>
      <path id="Trazado_325" data-name="Trazado 325" d="M61.936,297.182l-6.016-.017.06-21.234,6.015.015Z" transform="translate(-7.582 -265.786)" fill="#fff"/>
      <path id="Trazado_326" data-name="Trazado 326" d="M62.182,286.754a13.005,13.005,0,0,1,.76-4.5,9.952,9.952,0,0,1,2.169-3.507,9.588,9.588,0,0,1,3.478-2.27,12.747,12.747,0,0,1,4.685-.8c.727,0,1.487.039,2.28.108s1.575.16,2.342.27,1.5.239,2.2.389,1.318.307,1.857.469L81.873,304.9l-6.016-.017.024-7.993a11.286,11.286,0,0,1-2.1.679,10.75,10.75,0,0,1-2.342.237,8.336,8.336,0,0,1-6.9-2.987A12.509,12.509,0,0,1,62.182,286.754Zm6.136.177q-.015,5.776,4.264,5.786a7.07,7.07,0,0,0,1.837-.237,5.237,5.237,0,0,0,1.476-.6l.031-10.86q-.445-.082-1.132-.145c-.457-.041-.954-.063-1.493-.065a4.347,4.347,0,0,0-3.719,1.666A7.282,7.282,0,0,0,68.318,286.932Z" transform="translate(-3.156 -265.962)" fill="#fff"/>
      <path id="Trazado_327" data-name="Trazado 327" d="M95.245,296.549a33.386,33.386,0,0,1-3.96.818,32.514,32.514,0,0,1-5.086.369A12.079,12.079,0,0,1,81.7,297a6.822,6.822,0,0,1-2.84-2.046,7.944,7.944,0,0,1-1.485-3.134,16.812,16.812,0,0,1-.434-4l.034-11.83,6.015.017-.031,11.1a8.612,8.612,0,0,0,.754,4.2,3.054,3.054,0,0,0,2.864,1.3q.645,0,1.372-.058t1.292-.137l.046-16.392,6.015.017Z" transform="translate(7.275 -265.745)" fill="#fff"/>
      <path id="Trazado_328" data-name="Trazado 328" d="M102.672,286.224a8.31,8.31,0,0,0-.736-4.12,2.768,2.768,0,0,0-2.56-1.219c-.377,0-.766.019-1.171.058s-.794.085-1.171.138l-.046,16.391-6.015-.017.056-20.509q.768-.2,1.8-.418t2.181-.4q1.15-.179,2.362-.277t2.383-.094a10,10,0,0,1,3.731.6,8.447,8.447,0,0,1,2.359,1.4,11.233,11.233,0,0,1,6.061-1.961,10.6,10.6,0,0,1,4.177.719,6.292,6.292,0,0,1,2.6,2.005,7.539,7.539,0,0,1,1.325,3.072,19.836,19.836,0,0,1,.353,3.956l-.034,11.99-6.016-.017.032-11.263a8.309,8.309,0,0,0-.736-4.12,2.768,2.768,0,0,0-2.56-1.219,5.443,5.443,0,0,0-1.354.239,5.251,5.251,0,0,0-1.434.6,9.151,9.151,0,0,1,.357,1.959q.077,1.029.075,2.2l-.032,11.586-6.015-.017Z" transform="translate(17.195 -265.907)" fill="#fff"/>
    </g>
    <g id="Grupo_194" data-name="Grupo 194" transform="translate(55.833 343.54)">
      <path id="Trazado_329" data-name="Trazado 329" d="M50.647,297.991l-4.3-.012-.009,2.758,3.595.01a1.079,1.079,0,0,1,.746.225.777.777,0,0,1,.246.6.757.757,0,0,1-.253.594,1.084,1.084,0,0,1-.742.219l-3.595-.01-.01,3.55a1.435,1.435,0,0,1-.307,1,1.1,1.1,0,0,1-1.574-.009,1.428,1.428,0,0,1-.3-1l.022-8.292a1.867,1.867,0,0,1,.142-.77.878.878,0,0,1,.439-.432,1.853,1.853,0,0,1,.763-.133l5.144.015a1.11,1.11,0,0,1,.775.232.861.861,0,0,1,0,1.222A1.124,1.124,0,0,1,50.647,297.991Z" transform="translate(-44.141 -296.146)" fill="#fff"/>
      <path id="Trazado_330" data-name="Trazado 330" d="M54.465,296.207a5.762,5.762,0,0,1,2.878.688,4.418,4.418,0,0,1,1.813,1.939,6.578,6.578,0,0,1,.609,2.946,7.2,7.2,0,0,1-.345,2.27,4.9,4.9,0,0,1-1.019,1.768,4.416,4.416,0,0,1-1.664,1.142,6.559,6.559,0,0,1-4.521-.022,4.507,4.507,0,0,1-1.666-1.156,4.894,4.894,0,0,1-1.005-1.789,7.264,7.264,0,0,1-.336-2.26,7.007,7.007,0,0,1,.364-2.277,4.856,4.856,0,0,1,1.038-1.76,4.44,4.44,0,0,1,1.65-1.109A5.889,5.889,0,0,1,54.465,296.207Zm3.088,5.552a5.061,5.061,0,0,0-.377-2.052,2.846,2.846,0,0,0-1.087-1.316,3,3,0,0,0-1.628-.449,2.944,2.944,0,0,0-1.208.241,2.627,2.627,0,0,0-.958.715,3.392,3.392,0,0,0-.637,1.2,5.447,5.447,0,0,0-.236,1.642,5.548,5.548,0,0,0,.227,1.662,3.358,3.358,0,0,0,.65,1.232,2.752,2.752,0,0,0,.968.736,3.066,3.066,0,0,0,2.743-.169,2.9,2.9,0,0,0,1.121-1.29A5.027,5.027,0,0,0,57.553,301.759Z" transform="translate(-40.56 -296.207)" fill="#fff"/>
      <path id="Trazado_331" data-name="Trazado 331" d="M61.451,296.226a5.75,5.75,0,0,1,2.876.688,4.406,4.406,0,0,1,1.814,1.941,6.57,6.57,0,0,1,.609,2.944,7.185,7.185,0,0,1-.345,2.27,4.907,4.907,0,0,1-1.019,1.77,4.43,4.43,0,0,1-1.666,1.142,6.541,6.541,0,0,1-4.52-.024,4.5,4.5,0,0,1-1.666-1.154,4.9,4.9,0,0,1-1.005-1.79,7.2,7.2,0,0,1-.336-2.258,6.979,6.979,0,0,1,.364-2.279,4.87,4.87,0,0,1,1.038-1.76,4.446,4.446,0,0,1,1.649-1.109A5.938,5.938,0,0,1,61.451,296.226Zm3.088,5.552a5.066,5.066,0,0,0-.377-2.052,2.855,2.855,0,0,0-1.087-1.316,3,3,0,0,0-1.628-.449,2.953,2.953,0,0,0-1.21.242,2.634,2.634,0,0,0-.956.715,3.369,3.369,0,0,0-.637,1.2,5.405,5.405,0,0,0-.236,1.644,5.555,5.555,0,0,0,.227,1.662,3.386,3.386,0,0,0,.65,1.232,2.749,2.749,0,0,0,.968.734A3.066,3.066,0,0,0,63,305.221a2.919,2.919,0,0,0,1.121-1.289A5.03,5.03,0,0,0,64.539,301.778Z" transform="translate(-35.622 -296.194)" fill="#fff"/>
      <path id="Trazado_332" data-name="Trazado 332" d="M71.813,303.983a3.175,3.175,0,0,1-.507,1.756,3.352,3.352,0,0,1-1.478,1.215,5.543,5.543,0,0,1-2.3.435,5.178,5.178,0,0,1-2.63-.611,3.522,3.522,0,0,1-1.191-1.161,2.629,2.629,0,0,1-.454-1.41.934.934,0,0,1,.277-.678.945.945,0,0,1,.7-.282.829.829,0,0,1,.584.222,1.734,1.734,0,0,1,.406.655,4.436,4.436,0,0,0,.442.862,1.808,1.808,0,0,0,.671.572,2.5,2.5,0,0,0,1.14.227,2.57,2.57,0,0,0,1.577-.449,1.356,1.356,0,0,0,.609-1.125,1.189,1.189,0,0,0-.324-.872,2.1,2.1,0,0,0-.843-.514c-.346-.118-.807-.246-1.386-.381a10.236,10.236,0,0,1-1.942-.638,3.143,3.143,0,0,1-1.239-1,2.569,2.569,0,0,1-.456-1.563,2.68,2.68,0,0,1,.49-1.577,3.038,3.038,0,0,1,1.406-1.058,5.734,5.734,0,0,1,2.163-.367,5.448,5.448,0,0,1,1.717.251,3.692,3.692,0,0,1,1.2.657,2.713,2.713,0,0,1,.695.86,1.952,1.952,0,0,1,.218.876,1.024,1.024,0,0,1-.277.7.871.871,0,0,1-.688.311.791.791,0,0,1-.57-.188,2.566,2.566,0,0,1-.422-.616,2.761,2.761,0,0,0-.7-.954,2.059,2.059,0,0,0-1.321-.345,2.3,2.3,0,0,0-1.365.369,1.078,1.078,0,0,0-.521.891.921.921,0,0,0,.174.56,1.536,1.536,0,0,0,.485.4,3.2,3.2,0,0,0,.625.266q.315.1,1.043.283a15.9,15.9,0,0,1,1.649.474,4.923,4.923,0,0,1,1.255.628,2.589,2.589,0,0,1,.807.932A2.971,2.971,0,0,1,71.813,303.983Z" transform="translate(-30.635 -296.181)" fill="#fff"/>
      <path id="Trazado_333" data-name="Trazado 333" d="M73.953,307.15l-3.292-.009a1.368,1.368,0,0,1-1.017-.324,1.432,1.432,0,0,1-.3-1.019l.022-8.1a1.414,1.414,0,0,1,.316-1.024,1.383,1.383,0,0,1,1.012-.309l3.492.009a8.153,8.153,0,0,1,1.336.1,2.88,2.88,0,0,1,1.014.37,2.657,2.657,0,0,1,.674.579,2.536,2.536,0,0,1,.447.775,2.589,2.589,0,0,1,.152.893,2.476,2.476,0,0,1-1.625,2.362,2.632,2.632,0,0,1,2.118,2.637,2.943,2.943,0,0,1-.468,1.627,2.8,2.8,0,0,1-1.253,1.068,4.566,4.566,0,0,1-1.133.287A11.621,11.621,0,0,1,73.953,307.15Zm-.147-4.786-2.272-.007-.009,3.147,2.345.005q2.212.008,2.217-1.589a1.305,1.305,0,0,0-.57-1.186A3.215,3.215,0,0,0,73.806,302.364Zm-2.26-4.357-.009,2.786,2,.005a4.058,4.058,0,0,0,1.261-.15,1.2,1.2,0,0,0,.681-.587,1.317,1.317,0,0,0,.186-.69,1.074,1.074,0,0,0-.577-1.087,4.449,4.449,0,0,0-1.772-.273Z" transform="translate(-26.33 -296.095)" fill="#fff"/>
      <path id="Trazado_334" data-name="Trazado 334" d="M82.574,306.025l-.512-1.354-4.38-.012-.519,1.379a4.862,4.862,0,0,1-.519,1.092.819.819,0,0,1-.7.28,1.014,1.014,0,0,1-.727-.3.923.923,0,0,1-.314-.683,1.515,1.515,0,0,1,.075-.456c.048-.157.13-.375.244-.655L78,298.322c.079-.2.172-.442.283-.722a3.641,3.641,0,0,1,.355-.7,1.435,1.435,0,0,1,.495-.452,1.5,1.5,0,0,1,.754-.169,1.529,1.529,0,0,1,.76.172,1.5,1.5,0,0,1,.492.447,3.107,3.107,0,0,1,.314.585c.085.208.195.486.324.835l2.8,6.962a3.486,3.486,0,0,1,.326,1.156.947.947,0,0,1-.314.686,1.021,1.021,0,0,1-.754.311.943.943,0,0,1-.44-.094.88.88,0,0,1-.309-.249,2.444,2.444,0,0,1-.266-.486C82.722,306.385,82.64,306.192,82.574,306.025Zm-4.315-3,3.219.008-1.611-4.453Z" transform="translate(-22.397 -296.156)" fill="#fff"/>
      <path id="Trazado_335" data-name="Trazado 335" d="M83.883,297.617l-.022,7.843,4.426.014a1.156,1.156,0,0,1,.811.259.832.832,0,0,1,.282.647.808.808,0,0,1-.282.642,1.2,1.2,0,0,1-.816.246l-5.271-.015a1.144,1.144,0,0,1-1.335-1.342l.024-8.3a1.444,1.444,0,0,1,.3-.992,1,1,0,0,1,.783-.328,1.039,1.039,0,0,1,.8.328A1.421,1.421,0,0,1,83.883,297.617Z" transform="translate(-17.611 -296.148)" fill="#fff"/>
      <path id="Trazado_336" data-name="Trazado 336" d="M89.211,297.631l-.022,7.845,4.426.014a1.164,1.164,0,0,1,.811.258.838.838,0,0,1,.282.649.808.808,0,0,1-.282.642,1.192,1.192,0,0,1-.816.244l-5.271-.014A1.144,1.144,0,0,1,87,305.926l.024-8.3a1.444,1.444,0,0,1,.3-.992,1,1,0,0,1,.783-.328,1.034,1.034,0,0,1,.8.329A1.409,1.409,0,0,1,89.211,297.631Z" transform="translate(-13.845 -296.137)" fill="#fff"/>
    </g>
    <g id="Grupo_195" data-name="Grupo 195" transform="translate(44.81 229.239)">
      <path id="Trazado_337" data-name="Trazado 337" d="M93.374,264.969c.007-5.206.014-10.311.02-15.559l-10.248-.015c-.009,5.337-.015,10.517-.022,15.774l-2.555.164c0,.987,0,1.821,0,2.644L96.074,268c0-.923,0-1.656.005-2.608Z" transform="translate(-7.373 -214.993)" fill="#fff"/>
      <path id="Trazado_338" data-name="Trazado 338" d="M59.035,265.222c.009-5.375.015-10.627.022-15.863l-10.174-.014c-.007,5.32-.014,10.5-.022,15.829-.992,0-1.77,0-2.63,0,0,1.05,0,1.944,0,2.809L61.771,268c0-1,0-1.854,0-2.777Z" transform="translate(-31.644 -215.028)" fill="#fff"/>
      <path id="Trazado_339" data-name="Trazado 339" d="M76.079,265.1c.007-5.334.014-10.512.022-15.709-3.364,0-6.515-.009-9.824-.014-.005,4.235.009,8.317-.022,12.4-.024,3.124-.049,3.124-2.954,3.782,0,.782,0,1.563,0,2.4,5.363.009,10.6.015,15.87.022l0-2.588C78.134,265.291,77.2,265.2,76.079,265.1Z" transform="translate(-19.579 -215.009)" fill="#fff"/>
      <path id="Trazado_340" data-name="Trazado 340" d="M87.842,242.367a6.6,6.6,0,0,0,6.488-6.57,6.418,6.418,0,0,0-6.677-6.511,6.291,6.291,0,0,0-6.32,6.576A6.518,6.518,0,0,0,87.842,242.367Z" transform="translate(-6.832 -229.206)" fill="#fff"/>
      <path id="Trazado_341" data-name="Trazado 341" d="M53.451,242.32a6.5,6.5,0,0,0,6.527-6.494,6.49,6.49,0,0,0-12.975-.3A6.51,6.51,0,0,0,53.451,242.32Z" transform="translate(-31.096 -229.239)" fill="#fff"/>
      <path id="Trazado_342" data-name="Trazado 342" d="M70.582,242.34a6.782,6.782,0,0,0,6.687-6.658,6.436,6.436,0,0,0-6.576-6.421,6.517,6.517,0,0,0-6.6,6.426A6.871,6.871,0,0,0,70.582,242.34Z" transform="translate(-19.016 -229.224)" fill="#fff"/>
      <path id="Trazado_343" data-name="Trazado 343" d="M61.423,259.4a4.963,4.963,0,0,1,5.071,4.95,5.229,5.229,0,0,1-5.156,5.134,5.3,5.3,0,0,1-5-5.129A5.025,5.025,0,0,1,61.423,259.4Z" transform="translate(-24.498 -207.921)" fill="#fff"/>
      <path id="Trazado_344" data-name="Trazado 344" d="M138.093,238.95h-9.5c.457-1.589.763-2.654.763-2.654H107.911l.695,2.654H99.249c.457-1.589.763-2.654.763-2.654H78.57l.695,2.654h-9.09c.459-1.589.765-2.654.765-2.654H49.494s.282,1.07.7,2.654H40.4a2.729,2.729,0,0,0-2.721,2.721v.485a2.729,2.729,0,0,0,2.721,2.721H51.739c.886,3.4,1.731,6.66,1.884,7.327.343,1.492,1.49,3.519,3.325,3.519h5.39c2.178,0,2.866-.652,3.67-2.832.364-.987,1.408-4.484,2.444-8.015H80.812c.886,3.4,1.731,6.66,1.884,7.327.345,1.492,1.492,3.519,3.325,3.519h5.39c2.18,0,2.867-.652,3.67-2.832.364-.987,1.41-4.484,2.444-8.015h12.629c.886,3.4,1.731,6.66,1.884,7.327.345,1.492,1.49,3.519,3.325,3.519h5.39c2.18,0,2.867-.652,3.67-2.832.364-.987,1.41-4.484,2.444-8.015h11.226a2.729,2.729,0,0,0,2.721-2.721v-.485A2.729,2.729,0,0,0,138.093,238.95Z" transform="translate(-37.683 -224.251)" fill="#fff"/>
    </g>
  </g>
</svg>
